<?xml version="1.0" standalone="no"?>
<!DOCTYPE svg PUBLIC "-//W3C//DTD SVG 20010904//EN"
 "http://www.w3.org/TR/2001/REC-SVG-20010904/DTD/svg10.dtd">
<svg version="1.0" xmlns="http://www.w3.org/2000/svg"
 width="512.000000pt" height="512.000000pt" viewBox="0 0 512.000000 512.000000"
 preserveAspectRatio="xMidYMid meet">
<metadata>
Created by potrace 1.14, written by Peter Selinger 2001-2017
</metadata>
<g transform="translate(0.000000,512.000000) scale(0.100000,-0.100000)"
fill="#000000" stroke="none">
<path d="M1760 4992 c-211 -23 -392 -190 -427 -395 -4 -17 -6 -436 -7 -929 0
-494 -2 -898 -4 -898 -3 0 -59 29 -126 64 -66 35 -197 103 -291 152 -279 144
-255 125 -282 229 -12 49 -22 89 -20 90 31 14 80 65 97 100 86 177 -73 364
-262 309 -116 -35 -183 -172 -138 -288 28 -74 102 -133 175 -139 22 -1 45 -6
51 -10 7 -4 22 -47 34 -96 12 -50 27 -96 33 -104 7 -8 93 -56 192 -107 99 -51
203 -105 230 -120 52 -29 166 -89 413 -217 115 -59 146 -72 158 -62 24 20 16
46 -21 69 l-35 22 0 732 0 733 -23 42 c-14 28 -36 51 -62 65 -22 11 -42 24
-45 28 -8 10 -4 284 5 332 24 139 145 271 284 312 55 16 270 27 289 15 5 -3
26 -55 46 -116 45 -131 59 -156 100 -181 29 -17 60 -18 431 -19 507 -1 467
-16 540 200 l42 120 99 0 c54 0 122 -3 149 -8 162 -26 300 -165 330 -332 7
-40 10 -327 9 -845 -1 -494 3 -790 9 -797 14 -19 47 -15 55 6 4 11 7 383 6
828 -1 697 -3 815 -16 859 -50 164 -160 280 -319 335 -64 22 -64 22 -869 23
-443 1 -816 0 -830 -2z m-1175 -1362 c41 -26 68 -74 68 -126 0 -145 -196 -204
-271 -82 -85 139 66 293 203 208z"/>
<path d="M963 4973 c-22 -8 -14 -45 40 -173 41 -96 58 -126 74 -128 11 -2 25
4 32 12 10 12 2 38 -40 141 -60 146 -72 162 -106 148z"/>
<path d="M277 4202 c-14 -16 -15 -21 -3 -37 7 -10 19 -19 27 -21 8 -1 39 -9
70 -18 31 -9 65 -18 75 -20 11 -2 41 -10 67 -16 57 -15 81 -1 67 36 -6 16 -33
27 -137 54 -70 18 -133 34 -139 37 -5 2 -18 -5 -27 -15z"/>
<path d="M4012 4168 c-15 -4 -39 -19 -52 -33 l-24 -25 0 -265 c0 -279 3 -297
47 -325 31 -20 866 -24 913 -5 63 26 64 32 64 320 0 241 -2 262 -20 292 -11
18 -30 35 -43 38 -34 9 -852 11 -885 3z m482 -230 c137 -68 159 -85 148 -116
-2 -7 -71 -46 -154 -87 -195 -98 -188 -101 -188 105 0 146 5 170 37 170 7 0
78 -32 157 -72z"/>
<path d="M2870 3469 c-118 -43 -285 -105 -370 -136 -85 -31 -161 -61 -167 -66
-10 -7 -12 -90 -11 -356 2 -338 1 -346 -18 -343 -53 8 -134 4 -165 -8 -169
-68 -188 -265 -32 -335 109 -49 254 -2 302 98 20 41 21 58 21 398 l0 354 48
17 c112 38 509 168 515 168 3 0 8 -95 9 -210 l3 -211 -30 8 c-97 24 -201 -8
-258 -80 -25 -30 -32 -49 -35 -95 -3 -49 0 -63 24 -99 71 -108 247 -117 348
-16 20 20 41 54 46 75 14 50 9 886 -5 904 -8 10 -54 -4 -225 -67z"/>
<path d="M4424 3348 c-4 -7 -22 -73 -38 -147 l-31 -135 -105 -47 c-58 -27
-132 -60 -165 -75 -33 -15 -118 -54 -190 -87 -160 -73 -228 -104 -325 -147
-41 -19 -81 -38 -87 -43 -18 -13 -16 -54 2 -61 8 -3 64 17 125 44 60 27 110
48 111 47 0 -1 2 -42 2 -90 2 -66 6 -90 17 -97 41 -26 56 8 54 125 l-1 97 76
36 c147 67 337 154 439 200 69 30 107 53 112 66 4 12 20 83 36 158 24 114 26
138 15 152 -16 19 -37 21 -47 4z"/>
<path d="M1343 2523 c-15 -15 -19 -33 -18 -86 1 -42 -2 -67 -9 -68 -6 0 -118
-1 -249 -1 -231 -1 -239 -2 -252 -22 -24 -38 -175 -403 -175 -423 0 -22 29
-36 49 -24 6 4 49 95 95 202 l83 194 380 1 c208 0 384 4 391 8 16 9 15 41 0
53 -7 6 -58 9 -113 9 -55 -1 -107 2 -115 5 -12 6 -15 23 -14 73 1 51 -3 69
-17 82 -16 14 -19 14 -36 -3z"/>
<path d="M3414 2353 c-10 -11 -11 -19 -4 -34 11 -20 15 -20 118 -22 l62 0 -2
-876 c-3 -868 -3 -876 -24 -922 -25 -53 -82 -112 -139 -143 -46 -24 -45 -24
-930 -29 l-490 -2 -53 -24 c-30 -13 -78 -43 -108 -66 l-54 -42 -59 12 c-121
25 -233 107 -284 207 -52 103 -53 120 -52 967 1 653 -1 786 -13 797 -16 17
-47 4 -54 -23 -2 -10 -3 -378 -2 -818 1 -690 3 -807 16 -851 55 -178 197 -313
368 -347 41 -9 285 -12 871 -11 l814 1 64 22 c158 55 277 181 322 341 9 35 12
250 13 925 l1 880 259 0 258 0 113 -113 114 -113 -22 -37 c-16 -28 -22 -52
-21 -102 0 -103 47 -176 142 -220 38 -18 58 -21 107 -17 68 6 108 23 154 68
121 115 75 329 -83 388 -64 24 -144 20 -194 -9 l-34 -20 -124 123 -124 124
-456 0 c-379 0 -458 -3 -470 -14z m1394 -277 c61 -32 98 -101 89 -167 -19
-142 -193 -198 -290 -94 -28 30 -49 96 -44 135 16 113 144 179 245 126z"/>
<path d="M1837 1952 c-21 -4 -32 -41 -17 -56 8 -8 206 -11 741 -12 689 -1 731
0 739 17 11 20 3 49 -14 50 -36 2 -1435 3 -1449 1z"/>
<path d="M241 1757 c-28 -6 -47 -17 -61 -37 -20 -28 -21 -40 -18 -301 l3 -271
31 -27 31 -28 444 1 c482 1 474 0 501 57 10 19 13 95 12 281 -1 275 -3 291
-55 319 -26 13 -822 19 -888 6z m270 -257 c83 -82 156 -150 162 -150 6 0 79
68 162 150 83 83 158 150 168 150 9 0 21 -9 27 -20 10 -18 1 -31 -79 -112
l-90 -92 89 -89 c62 -63 87 -94 83 -106 -17 -46 -43 -34 -144 70 l-77 77 -28
-30 c-85 -88 -148 -85 -227 10 l-19 23 -94 -91 c-82 -81 -95 -90 -113 -80 -12
6 -21 18 -21 28 0 9 39 56 87 104 l86 87 -86 87 c-80 79 -98 109 -80 127 20
20 56 -7 194 -143z"/>
<path d="M2143 1598 c-5 -7 -9 -17 -8 -23 2 -34 11 -35 425 -35 403 0 409 0
420 21 26 48 19 49 -420 49 -314 0 -410 -3 -417 -12z"/>
<path d="M4636 1324 c-12 -12 -13 -20 -6 -35 6 -10 16 -19 23 -20 7 0 21 -2
32 -4 51 -10 145 -19 200 -19 53 -1 60 1 63 20 4 30 -15 41 -83 49 -59 6 -98
10 -174 20 -28 4 -44 0 -55 -11z"/>
<path d="M4193 673 c-24 -9 -13 -39 60 -158 61 -102 76 -120 97 -120 43 0 35
35 -37 156 -79 133 -83 137 -120 122z"/>
</g>
</svg>
